<svg viewBox="0 0 437 334" fill="none" xmlns="http://www.w3.org/2000/svg">
<path d="M69.8295 78.0852V70.2727H124.375V78.0852H101.506V143H92.6989V78.0852H69.8295ZM145.46 144.278C142.003 144.278 138.867 143.627 136.049 142.325C133.232 141 130.995 139.094 129.338 136.608C127.681 134.098 126.852 131.068 126.852 127.517C126.852 124.392 127.467 121.859 128.699 119.918C129.93 117.953 131.575 116.414 133.635 115.301C135.694 114.188 137.967 113.36 140.453 112.815C142.962 112.247 145.484 111.797 148.017 111.466C151.331 111.04 154.018 110.72 156.078 110.507C158.161 110.27 159.676 109.88 160.623 109.335C161.594 108.791 162.079 107.844 162.079 106.494V106.21C162.079 102.706 161.12 99.9839 159.203 98.0426C157.309 96.1013 154.432 95.1307 150.574 95.1307C146.573 95.1307 143.436 96.0066 141.163 97.7585C138.89 99.5104 137.292 101.381 136.369 103.369L128.414 100.528C129.835 97.214 131.729 94.6335 134.096 92.7869C136.487 90.9167 139.092 89.6146 141.909 88.8807C144.75 88.1231 147.543 87.7443 150.289 87.7443C152.041 87.7443 154.054 87.9574 156.326 88.3835C158.623 88.786 160.836 89.6264 162.967 90.9048C165.121 92.1832 166.909 94.1127 168.329 96.6932C169.75 99.2737 170.46 102.73 170.46 107.062V143H162.079V135.614H161.653C161.085 136.797 160.138 138.064 158.812 139.413C157.486 140.763 155.723 141.911 153.521 142.858C151.319 143.805 148.632 144.278 145.46 144.278ZM146.738 136.75C150.053 136.75 152.846 136.099 155.119 134.797C157.415 133.495 159.144 131.814 160.304 129.754C161.487 127.695 162.079 125.528 162.079 123.256V115.585C161.724 116.011 160.943 116.402 159.735 116.757C158.552 117.089 157.179 117.384 155.616 117.645C154.077 117.882 152.574 118.095 151.106 118.284C149.662 118.45 148.49 118.592 147.591 118.71C145.413 118.994 143.377 119.456 141.483 120.095C139.612 120.711 138.097 121.646 136.937 122.901C135.801 124.132 135.233 125.812 135.233 127.943C135.233 130.855 136.31 133.057 138.464 134.548C140.642 136.016 143.4 136.75 146.738 136.75ZM185.756 143V88.4545H193.853V96.9773H194.563C195.7 94.0653 197.534 91.8045 200.067 90.1946C202.601 88.5611 205.643 87.7443 209.194 87.7443C212.792 87.7443 215.787 88.5611 218.178 90.1946C220.593 91.8045 222.475 94.0653 223.825 96.9773H224.393C225.79 94.16 227.885 91.9228 230.678 90.2656C233.472 88.5848 236.822 87.7443 240.728 87.7443C245.605 87.7443 249.594 89.2713 252.695 92.3253C255.797 95.3556 257.347 100.079 257.347 106.494V143H248.967V106.494C248.967 102.47 247.866 99.5933 245.664 97.8651C243.462 96.1368 240.87 95.2727 237.887 95.2727C234.052 95.2727 231.081 96.4328 228.974 98.7528C226.867 101.049 225.813 103.961 225.813 107.489V143H217.29V105.642C217.29 102.541 216.284 100.043 214.272 98.1491C212.26 96.2315 209.667 95.2727 206.495 95.2727C204.317 95.2727 202.281 95.8527 200.387 97.0128C198.517 98.1728 197.002 99.7827 195.842 101.842C194.705 103.878 194.137 106.234 194.137 108.909V143H185.756ZM272.67 163.455V88.4545H280.767V97.1193H281.761C282.377 96.1723 283.229 94.965 284.318 93.4972C285.431 92.0057 287.017 90.6799 289.077 89.5199C291.16 88.3362 293.977 87.7443 297.528 87.7443C302.121 87.7443 306.17 88.8925 309.673 91.1889C313.177 93.4853 315.911 96.7405 317.876 100.955C319.841 105.169 320.824 110.14 320.824 115.869C320.824 121.646 319.841 126.653 317.876 130.891C315.911 135.105 313.189 138.372 309.709 140.692C306.229 142.988 302.216 144.136 297.67 144.136C294.167 144.136 291.361 143.556 289.254 142.396C287.147 141.213 285.526 139.875 284.389 138.384C283.253 136.868 282.377 135.614 281.761 134.619H281.051V163.455H272.67ZM280.909 115.727C280.909 119.847 281.513 123.481 282.72 126.629C283.928 129.754 285.691 132.205 288.011 133.98C290.331 135.732 293.172 136.608 296.534 136.608C300.038 136.608 302.962 135.685 305.305 133.838C307.673 131.968 309.448 129.458 310.632 126.31C311.839 123.137 312.443 119.61 312.443 115.727C312.443 111.892 311.851 108.436 310.668 105.358C309.508 102.257 307.744 99.8063 305.376 98.0071C303.033 96.1842 300.085 95.2727 296.534 95.2727C293.125 95.2727 290.26 96.1368 287.94 97.8651C285.62 99.5696 283.868 101.961 282.685 105.038C281.501 108.092 280.909 111.655 280.909 115.727ZM333.608 143V88.4545H341.989V143H333.608ZM337.869 79.3636C336.236 79.3636 334.827 78.8073 333.643 77.6946C332.483 76.5819 331.903 75.2443 331.903 73.6818C331.903 72.1193 332.483 70.7817 333.643 69.669C334.827 68.5563 336.236 68 337.869 68C339.503 68 340.9 68.5563 342.06 69.669C343.243 70.7817 343.835 72.1193 343.835 73.6818C343.835 75.2443 343.243 76.5819 342.06 77.6946C340.9 78.8073 339.503 79.3636 337.869 79.3636ZM363.588 88.4545L376.657 110.756L389.725 88.4545H399.384L381.77 115.727L399.384 143H389.725L376.657 121.835L363.588 143H353.929L371.259 115.727L353.929 88.4545H363.588Z" fill="currentColor"/>
<path d="M73.8068 264V191.273H82.6136V223.659H121.392V191.273H130.199V264H121.392V231.472H82.6136V264H73.8068ZM146.694 264V209.455H155.075V264H146.694ZM150.955 200.364C149.322 200.364 147.913 199.807 146.729 198.695C145.569 197.582 144.989 196.244 144.989 194.682C144.989 193.119 145.569 191.782 146.729 190.669C147.913 189.556 149.322 189 150.955 189C152.589 189 153.986 189.556 155.146 190.669C156.329 191.782 156.921 193.119 156.921 194.682C156.921 196.244 156.329 197.582 155.146 198.695C153.986 199.807 152.589 200.364 150.955 200.364ZM194.146 209.455V216.557H165.879V209.455H194.146ZM174.118 196.386H182.498V248.375C182.498 250.742 182.842 252.518 183.528 253.702C184.238 254.862 185.138 255.643 186.227 256.045C187.34 256.424 188.511 256.614 189.743 256.614C190.666 256.614 191.423 256.566 192.015 256.472C192.607 256.353 193.081 256.259 193.436 256.188L195.14 263.716C194.572 263.929 193.779 264.142 192.761 264.355C191.743 264.592 190.453 264.71 188.89 264.71C186.523 264.71 184.203 264.201 181.93 263.183C179.681 262.165 177.811 260.615 176.319 258.531C174.851 256.448 174.118 253.82 174.118 250.648V196.386ZM244.412 221.67L236.884 223.801C236.41 222.546 235.712 221.327 234.789 220.143C233.889 218.936 232.658 217.942 231.096 217.161C229.533 216.379 227.533 215.989 225.094 215.989C221.756 215.989 218.974 216.758 216.749 218.297C214.547 219.812 213.446 221.741 213.446 224.085C213.446 226.169 214.204 227.814 215.719 229.021C217.234 230.229 219.602 231.235 222.821 232.04L230.918 234.028C235.795 235.212 239.429 237.023 241.82 239.462C244.211 241.876 245.407 244.99 245.407 248.801C245.407 251.926 244.507 254.72 242.708 257.182C240.932 259.644 238.446 261.585 235.25 263.006C232.054 264.426 228.337 265.136 224.1 265.136C218.536 265.136 213.932 263.929 210.286 261.514C206.64 259.099 204.332 255.572 203.361 250.932L211.316 248.943C212.073 251.879 213.506 254.08 215.613 255.548C217.743 257.016 220.525 257.75 223.958 257.75C227.864 257.75 230.965 256.921 233.262 255.264C235.582 253.583 236.742 251.571 236.742 249.227C236.742 247.333 236.079 245.747 234.753 244.469C233.427 243.167 231.391 242.196 228.645 241.557L219.554 239.426C214.559 238.242 210.89 236.408 208.546 233.922C206.226 231.412 205.066 228.276 205.066 224.511C205.066 221.434 205.93 218.711 207.658 216.344C209.41 213.976 211.789 212.118 214.796 210.768C217.826 209.419 221.259 208.744 225.094 208.744C230.492 208.744 234.73 209.928 237.807 212.295C240.908 214.663 243.11 217.788 244.412 221.67Z" fill="currentColor"/>
<line x1="38" y1="52" x2="38" y2="282" stroke="currentColor" stroke-width="10" stroke-linecap="round"/>
</svg>
